# xmcd
#
# Track frame offsets:
#	150
#	19957
#	38787
#	56727
#	70225
#	88660
#	107357
#	123547
#	138800
#	158147
#	176947
#	196925
#	217440
#
# Disc length: 3152 seconds
#
# Revision: 1
# Processed by: cddbd v1.5.2PL0 Copyright (c) Steve Scherf et al.
# Submitted via: audiograbber 1.81.03
#
DISCID=bf0c4e0d
DTITLE=Charlie`Wood - Lucky
DYEAR=2006
DGENRE=Blues
TTITLE0=Can't Teach That Stuff
TTITLE1=The`River's Invitation
TTITLE2=Never Gonna Stop New Orleans
TTITLE3=What's It Gonna Take
TTITLE4=Now's The Time
TTITLE5=Lonely Avenue
TTITLE6=Lucky
TTITLE7=Ear Candy
TTITLE8=Sneaky
TTITLE9=One Of These Days
TTITLE10=Television
TTITLE11=If It Makes A Dollar
TTITLE12=Beale Street Blues
EXTD=Released on Inside Sounds Label
EXTT0=
EXTT1=
EXTT2=
EXTT3=
EXTT4=
EXTT5=
EXTT6=
EXTT7=
EXTT8=
EXTT9=
EXTT10=
EXTT11=
EXTT12=
PLAYORDER=
